<?xml version="1.0" standalone="no"?>
<!DOCTYPE svg PUBLIC "-//W3C//DTD SVG 20010904//EN"
 "http://www.w3.org/TR/2001/REC-SVG-20010904/DTD/svg10.dtd">
<svg version="1.0" xmlns="http://www.w3.org/2000/svg"
 width="5381.000000pt" height="1518.000000pt" viewBox="0 0 5381.000000 1518.000000"
 preserveAspectRatio="xMidYMid meet">

<g transform="translate(0.000000,1518.000000) scale(0.100000,-0.100000)"
fill="#C9184A" stroke="none">
<path d="M34250 15164 c-815 -59 -1426 -271 -1880 -652 -52 -44 -158 -144
-235 -223 -422 -434 -763 -987 -1030 -1674 -50 -127 -4259 -9354 -4347 -9529
-50 -99 -126 -204 -210 -292 -98 -102 -162 -152 -256 -199 -253 -126 -673
-121 -927 13 -84 45 -233 189 -284 274 -44 77 -87 205 -100 301 -8 55 -11
1843 -11 5903 l0 5824 -1290 0 -1290 0 0 -5932 c0 -3910 4 -5981 10 -6073 47
-641 217 -1178 516 -1627 525 -788 1304 -1182 2484 -1259 226 -14 697 -6 895
15 674 75 1203 264 1645 589 568 418 1010 1063 1341 1957 52 142 4271 9390
4372 9585 108 208 273 370 464 457 122 55 219 72 408 72 174 0 233 -7 355 -46
123 -39 199 -86 296 -182 138 -139 201 -278 224 -496 6 -62 10 -2118 10 -5897
l0 -5803 1280 0 1280 0 -3 6003 c-4 6410 -1 6059 -47 6352 -107 687 -371 1246
-799 1689 -458 473 -1070 735 -1941 832 -139 15 -791 28 -930 18z"/>
<path d="M1034 14895 c-248 -43 -483 -164 -663 -344 -157 -158 -266 -350 -323
-568 -27 -104 -31 -139 -35 -298 -6 -215 9 -334 62 -493 64 -190 167 -354 310
-491 177 -169 356 -265 610 -324 l90 -21 3640 -6 c2824 -5 3658 -9 3720 -18
449 -70 729 -184 996 -407 193 -161 420 -506 517 -785 131 -375 151 -843 57
-1264 -97 -429 -316 -809 -604 -1048 -221 -184 -513 -325 -801 -388 -260 -57
-29 -54 -3485 -60 -2952 -5 -3179 -7 -3305 -23 -571 -75 -965 -240 -1245 -521
-178 -179 -297 -380 -388 -656 -66 -200 -97 -348 -139 -675 -8 -65 -12 -774
-15 -2580 -3 -2234 -2 -2501 12 -2599 38 -260 147 -484 327 -673 179 -187 375
-297 643 -359 102 -24 459 -27 570 -5 305 60 577 230 763 477 79 105 167 288
205 429 l32 120 5 1605 5 1605 23 108 c33 156 74 275 143 412 79 159 171 287
299 415 226 226 494 370 820 442 l105 23 1130 0 c1069 0 1134 -1 1210 -19 314
-73 573 -242 747 -487 25 -35 643 -1076 1373 -2314 730 -1237 1346 -2277 1368
-2310 97 -142 277 -301 434 -383 480 -249 1063 -163 1438 213 380 381 474 948
238 1420 -20 38 -414 720 -876 1515 -462 795 -856 1480 -875 1523 -58 134 -84
254 -89 414 -8 220 24 385 111 569 65 137 138 238 255 354 85 84 144 131 296
232 212 140 320 225 507 393 506 456 904 1085 1138 1795 233 705 317 1524 235
2270 -36 328 -118 712 -215 1015 -322 1001 -971 1756 -1929 2244 -489 249
-981 400 -1566 480 -424 59 -136 55 -4135 57 -3059 2 -3678 0 -3746 -11z"/>
<path d="M15510 9199 c-905 -38 -1607 -306 -2100 -799 -403 -402 -616 -879
-722 -1615 -22 -149 -22 -166 -26 -1955 -2 -1259 0 -1849 8 -1950 40 -528 172
-995 380 -1344 385 -646 1043 -1062 1905 -1205 350 -59 143 -55 3348 -58
l2937 -3 0 870 0 870 -2857 3 c-2644 3 -2866 4 -2963 20 -304 50 -500 132
-652 275 -172 162 -284 370 -340 632 -18 85 -21 141 -25 522 l-5 427 2334 4
c2525 4 2428 2 2803 57 973 145 1545 514 1881 1215 187 390 278 884 260 1420
-26 777 -224 1350 -626 1812 -435 500 -1133 761 -2145 803 -275 11 -3127 11
-3395 -1z m3360 -1730 c226 -20 430 -80 584 -170 97 -57 247 -210 307 -314 90
-155 133 -297 151 -498 34 -376 -72 -693 -302 -910 -64 -60 -103 -87 -192
-131 -121 -59 -199 -84 -373 -118 l-110 -22 -2267 -3 -2268 -3 0 515 c0 301 4
556 11 612 28 250 118 468 271 659 176 219 458 346 848 383 132 13 3203 13
3340 0z"/>
<path d="M39480 8345 l0 -865 2733 0 c1768 0 2771 -4 2842 -10 369 -34 624
-136 806 -323 114 -116 221 -299 273 -465 54 -171 58 -215 63 -679 l5 -432
-2314 -4 c-2403 -4 -2362 -3 -2713 -47 -591 -75 -1085 -260 -1450 -545 -103
-80 -284 -268 -358 -372 -239 -336 -373 -749 -418 -1288 -15 -183 -6 -638 15
-804 81 -611 281 -1078 630 -1466 410 -456 1072 -712 1981 -765 273 -16 4882
-8 5015 9 390 49 651 129 850 260 30 20 86 65 124 101 217 204 316 450 373
920 16 133 17 336 21 2450 3 2342 1 2506 -34 2778 -21 165 -69 397 -113 551
l-38 131 851 0 c1005 0 1187 -8 1546 -66 559 -90 973 -277 1269 -575 286 -288
453 -648 527 -1139 17 -107 18 -301 21 -2772 l3 -2658 905 0 905 0 0 2608 c0
1666 -4 2665 -10 2767 -59 917 -327 1654 -813 2235 -636 760 -1576 1176 -2932
1295 -357 32 -797 36 -2750 31 -2287 -7 -1546 -7 -4962 -1 l-2853 6 0 -866z
m6720 -5062 c0 -548 -4 -881 -11 -923 -21 -133 -91 -235 -199 -289 -116 -59
13 -56 -2215 -56 -1911 0 -2058 1 -2161 18 -276 43 -460 120 -601 251 -210
194 -313 462 -313 811 0 218 31 369 110 530 144 294 415 454 850 504 41 5
1080 9 2308 10 l2232 1 0 -857z"/>
</g>
</svg>
