<?xml version="1.0" standalone="no"?>
<!DOCTYPE svg PUBLIC "-//W3C//DTD SVG 20010904//EN"
 "http://www.w3.org/TR/2001/REC-SVG-20010904/DTD/svg10.dtd">
<svg version="1.0" xmlns="http://www.w3.org/2000/svg"
 width="476.000000pt" height="271.000000pt" viewBox="0 0 476.000000 271.000000"
 preserveAspectRatio="xMidYMid meet">

<g transform="translate(0.000000,271.000000) scale(0.100000,-0.100000)"
fill="#C9184A" stroke="none">
<path d="M3782 2450 c-153 -32 -257 -133 -342 -329 -47 -110 -555 -1221 -586
-1282 -13 -26 -38 -59 -56 -74 -28 -24 -38 -27 -85 -23 -62 5 -89 26 -103 77
-6 23 -10 329 -10 824 l0 787 -172 -2 -173 -3 -3 -805 c-2 -530 1 -829 8 -874
28 -180 145 -303 320 -336 77 -15 205 -12 280 6 155 36 246 128 334 337 24 56
168 374 320 707 204 446 284 612 306 633 42 37 125 39 167 3 l28 -24 5 -819 5
-818 173 -3 173 -2 -3 862 -3 863 -23 55 c-47 114 -129 193 -237 226 -59 19
-261 27 -323 14z"/>
<path d="M566 2416 c-81 -30 -122 -98 -114 -187 5 -51 40 -108 81 -131 17 -10
152 -14 557 -18 l535 -5 56 -28 c186 -91 183 -380 -5 -480 -40 -21 -52 -22
-531 -28 -529 -6 -533 -6 -600 -62 -85 -70 -95 -130 -95 -561 0 -310 2 -345
19 -382 56 -122 234 -137 304 -24 21 33 22 50 27 285 5 244 6 251 30 295 14
24 44 58 68 75 l44 30 185 3 c200 4 223 -1 266 -46 13 -15 106 -166 206 -337
100 -171 195 -322 211 -337 67 -62 166 -57 232 13 41 43 58 107 40 158 -6 16
-57 109 -115 207 -57 99 -114 198 -126 221 -40 79 -22 147 55 209 201 161 269
300 268 549 0 112 -4 141 -26 207 -61 184 -193 304 -395 360 -74 21 -102 22
-608 25 -439 2 -537 1 -569 -11z"/>
</g>
</svg>
